<mxfile host="app.diagrams.net" modified="2022-02-12T11:09:26.803Z" agent="5.0 (Windows NT 10.0; Win64; x64) AppleWebKit/537.36 (KHTML, like Gecko) Chrome/96.0.4664.110 Safari/537.36" etag="fbQP5jJ5cQF1EY3jmans" version="16.0.3" type="github">
  <diagram name="Page-1" id="74b105a0-9070-1c63-61bc-23e55f88626e">
    <mxGraphModel dx="2062" dy="1122" grid="1" gridSize="10" guides="1" tooltips="1" connect="1" arrows="1" fold="1" page="1" pageScale="1.5" pageWidth="1169" pageHeight="826" background="none" math="0" shadow="0">
      <root>
        <mxCell id="0" style=";html=1;" />
        <mxCell id="1" style=";html=1;" parent="0" />
        <mxCell id="10b056a9c633e61c-19" style="edgeStyle=orthogonalEdgeStyle;rounded=0;html=1;endArrow=block;endFill=1;jettySize=auto;orthogonalLoop=1;strokeWidth=2;startArrow=none;startFill=0;" parent="1" source="10b056a9c633e61c-2" target="10b056a9c633e61c-4" edge="1">
          <mxGeometry relative="1" as="geometry">
            <Array as="points">
              <mxPoint x="852" y="635" />
              <mxPoint x="852" y="440" />
            </Array>
            <mxPoint x="922" y="440" as="targetPoint" />
          </mxGeometry>
        </mxCell>
        <mxCell id="10b056a9c633e61c-20" style="edgeStyle=orthogonalEdgeStyle;rounded=0;html=1;endArrow=block;endFill=1;jettySize=auto;orthogonalLoop=1;strokeWidth=2;startArrow=none;startFill=0;" parent="1" source="10b056a9c633e61c-2" target="10b056a9c633e61c-8" edge="1">
          <mxGeometry relative="1" as="geometry" />
        </mxCell>
        <mxCell id="10b056a9c633e61c-2" value="exchangeratesapi.io" style="strokeWidth=2;dashed=0;align=center;fontSize=15;fillColor=#c0f5a9;verticalLabelPosition=bottom;verticalAlign=top;shape=mxgraph.eip.recipient_list;fontStyle=1;perimeterSpacing=1;" parent="1" vertex="1">
          <mxGeometry x="580" y="590" width="150" height="90" as="geometry" />
        </mxCell>
        <mxCell id="10b056a9c633e61c-4" value="convert&#xa;" style="strokeWidth=2;dashed=0;align=center;fontSize=12;shape=rect;verticalLabelPosition=bottom;verticalAlign=top;fillColor=#c0f5a9" parent="1" vertex="1">
          <mxGeometry x="922" y="390" width="150" height="90" as="geometry" />
        </mxCell>
        <mxCell id="10b056a9c633e61c-5" value="" style="strokeWidth=1;dashed=0;align=center;fontSize=8;shape=rect;fillColor=#ffffff;strokeColor=#000000;" parent="10b056a9c633e61c-4" vertex="1">
          <mxGeometry x="85" y="25" width="40" height="40" as="geometry" />
        </mxCell>
        <mxCell id="10b056a9c633e61c-22" style="edgeStyle=orthogonalEdgeStyle;rounded=0;html=1;endArrow=block;endFill=1;jettySize=auto;orthogonalLoop=1;strokeWidth=2;startArrow=none;startFill=0;entryX=0;entryY=0.25;entryDx=0;entryDy=0;entryPerimeter=0;" parent="1" target="gpd19oeyMjvA0ryeFxa_-17" edge="1">
          <mxGeometry relative="1" as="geometry">
            <mxPoint x="1072" y="415" as="sourcePoint" />
          </mxGeometry>
        </mxCell>
        <mxCell id="10b056a9c633e61c-23" style="edgeStyle=orthogonalEdgeStyle;rounded=0;html=1;endArrow=block;endFill=1;jettySize=auto;orthogonalLoop=1;strokeWidth=2;startArrow=none;startFill=0;" parent="1" source="10b056a9c633e61c-8" target="gpd19oeyMjvA0ryeFxa_-17" edge="1">
          <mxGeometry relative="1" as="geometry" />
        </mxCell>
        <mxCell id="10b056a9c633e61c-8" value="latest&#xa;" style="strokeWidth=2;dashed=0;align=center;fontSize=12;shape=rect;verticalLabelPosition=bottom;verticalAlign=top;fillColor=#c0f5a9" parent="1" vertex="1">
          <mxGeometry x="910" y="590" width="150" height="90" as="geometry" />
        </mxCell>
        <mxCell id="10b056a9c633e61c-9" value="" style="strokeWidth=1;dashed=0;align=center;fontSize=8;shape=rect" parent="10b056a9c633e61c-8" vertex="1">
          <mxGeometry x="85" y="25" width="40" height="40" as="geometry" />
        </mxCell>
        <mxCell id="gpd19oeyMjvA0ryeFxa_-9" style="edgeStyle=orthogonalEdgeStyle;rounded=0;orthogonalLoop=1;jettySize=auto;html=1;exitX=0.86;exitY=1;exitDx=0;exitDy=0;exitPerimeter=0;entryX=0.75;entryY=0;entryDx=0;entryDy=0;entryPerimeter=0;fontSize=15;startArrow=classic;startFill=1;strokeWidth=2;" edge="1" parent="1" source="10b056a9c633e61c-10" target="10b056a9c633e61c-15">
          <mxGeometry relative="1" as="geometry" />
        </mxCell>
        <mxCell id="10b056a9c633e61c-10" value="Conversion" style="strokeWidth=2;dashed=0;align=center;fontSize=12;shape=mxgraph.eip.message_translator;fillColor=#c0f5a9;verticalLabelPosition=bottom;verticalAlign=top;" parent="1" vertex="1">
          <mxGeometry x="1330" y="350" width="150" height="90" as="geometry" />
        </mxCell>
        <mxCell id="gpd19oeyMjvA0ryeFxa_-8" style="edgeStyle=orthogonalEdgeStyle;rounded=0;orthogonalLoop=1;jettySize=auto;html=1;entryX=0.5;entryY=1;entryDx=0;entryDy=0;entryPerimeter=0;fontSize=15;strokeWidth=2;" edge="1" parent="1" source="10b056a9c633e61c-11" target="10b056a9c633e61c-15">
          <mxGeometry relative="1" as="geometry" />
        </mxCell>
        <mxCell id="gpd19oeyMjvA0ryeFxa_-14" style="edgeStyle=orthogonalEdgeStyle;rounded=0;orthogonalLoop=1;jettySize=auto;html=1;entryX=0.5;entryY=1;entryDx=0;entryDy=0;entryPerimeter=0;fontSize=12;startArrow=classic;startFill=1;strokeWidth=2;exitX=0.5;exitY=1;exitDx=0;exitDy=0;exitPerimeter=0;" edge="1" parent="1" source="10b056a9c633e61c-11" target="gpd19oeyMjvA0ryeFxa_-11">
          <mxGeometry relative="1" as="geometry" />
        </mxCell>
        <mxCell id="10b056a9c633e61c-11" value="Fx Rate Service" style="strokeWidth=2;dashed=0;align=center;fontSize=12;shape=mxgraph.eip.message_translator;fillColor=#c0f5a9;verticalLabelPosition=bottom;verticalAlign=top;" parent="1" vertex="1">
          <mxGeometry x="1350" y="700" width="150" height="90" as="geometry" />
        </mxCell>
        <mxCell id="10b056a9c633e61c-15" value="Application MongoDB" style="strokeWidth=2;dashed=0;align=center;fontSize=13;verticalLabelPosition=bottom;verticalAlign=top;shape=mxgraph.eip.message_store;fillColor=#c0f5a9" parent="1" vertex="1">
          <mxGeometry x="1350" y="500" width="150" height="90" as="geometry" />
        </mxCell>
        <mxCell id="10b056a9c633e61c-30" value="Forex App Design" style="text;strokeColor=none;fillColor=none;html=1;fontSize=24;fontStyle=1;verticalAlign=middle;align=center;" parent="1" vertex="1">
          <mxGeometry x="420" y="190" width="1590" height="40" as="geometry" />
        </mxCell>
        <mxCell id="gpd19oeyMjvA0ryeFxa_-10" value="SWAGGER" style="strokeWidth=2;outlineConnect=0;dashed=0;align=center;fontSize=12;fillColor=#c0f5a9;verticalLabelPosition=bottom;verticalAlign=top;shape=mxgraph.eip.content_filter;" vertex="1" parent="1">
          <mxGeometry x="1720" y="510" width="150" height="90" as="geometry" />
        </mxCell>
        <mxCell id="gpd19oeyMjvA0ryeFxa_-16" style="edgeStyle=orthogonalEdgeStyle;rounded=0;orthogonalLoop=1;jettySize=auto;html=1;exitX=0.5;exitY=0;exitDx=0;exitDy=0;exitPerimeter=0;fontSize=12;startArrow=classic;startFill=1;strokeWidth=2;" edge="1" parent="1" source="gpd19oeyMjvA0ryeFxa_-11" target="gpd19oeyMjvA0ryeFxa_-10">
          <mxGeometry relative="1" as="geometry" />
        </mxCell>
        <mxCell id="gpd19oeyMjvA0ryeFxa_-11" value="Fx Rate Contoller" style="strokeWidth=2;outlineConnect=0;dashed=0;align=center;fontSize=12;fillColor=#c0f5a9;verticalLabelPosition=bottom;verticalAlign=top;shape=mxgraph.eip.envelope_wrapper;" vertex="1" parent="1">
          <mxGeometry x="1720" y="690" width="150" height="90" as="geometry" />
        </mxCell>
        <mxCell id="gpd19oeyMjvA0ryeFxa_-13" style="edgeStyle=orthogonalEdgeStyle;rounded=0;orthogonalLoop=1;jettySize=auto;html=1;entryX=0.5;entryY=0;entryDx=0;entryDy=0;entryPerimeter=0;fontSize=12;startArrow=classic;startFill=1;strokeWidth=2;" edge="1" parent="1" source="gpd19oeyMjvA0ryeFxa_-12" target="10b056a9c633e61c-10">
          <mxGeometry relative="1" as="geometry" />
        </mxCell>
        <mxCell id="gpd19oeyMjvA0ryeFxa_-15" style="edgeStyle=orthogonalEdgeStyle;rounded=0;orthogonalLoop=1;jettySize=auto;html=1;fontSize=12;startArrow=classic;startFill=1;strokeWidth=2;" edge="1" parent="1" source="gpd19oeyMjvA0ryeFxa_-12" target="gpd19oeyMjvA0ryeFxa_-10">
          <mxGeometry relative="1" as="geometry" />
        </mxCell>
        <mxCell id="gpd19oeyMjvA0ryeFxa_-12" value="Conversion Controller" style="strokeWidth=2;outlineConnect=0;dashed=0;align=center;fontSize=12;fillColor=#c0f5a9;verticalLabelPosition=bottom;verticalAlign=top;shape=mxgraph.eip.envelope_wrapper;" vertex="1" parent="1">
          <mxGeometry x="1720" y="290" width="150" height="90" as="geometry" />
        </mxCell>
        <mxCell id="gpd19oeyMjvA0ryeFxa_-19" style="edgeStyle=orthogonalEdgeStyle;rounded=0;orthogonalLoop=1;jettySize=auto;html=1;entryX=0;entryY=0.5;entryDx=0;entryDy=0;entryPerimeter=0;fontSize=13;startArrow=classic;startFill=1;strokeWidth=2;exitX=0.5;exitY=0;exitDx=0;exitDy=0;exitPerimeter=0;" edge="1" parent="1" source="gpd19oeyMjvA0ryeFxa_-17" target="10b056a9c633e61c-10">
          <mxGeometry relative="1" as="geometry" />
        </mxCell>
        <mxCell id="gpd19oeyMjvA0ryeFxa_-21" style="edgeStyle=orthogonalEdgeStyle;rounded=0;orthogonalLoop=1;jettySize=auto;html=1;entryX=0;entryY=0.656;entryDx=0;entryDy=0;entryPerimeter=0;fontSize=13;startArrow=classic;startFill=1;strokeWidth=2;" edge="1" parent="1" source="gpd19oeyMjvA0ryeFxa_-17" target="10b056a9c633e61c-11">
          <mxGeometry relative="1" as="geometry">
            <Array as="points">
              <mxPoint x="1160" y="759" />
            </Array>
          </mxGeometry>
        </mxCell>
        <mxCell id="gpd19oeyMjvA0ryeFxa_-17" value="Client" style="fillColor=#c0f5a9;dashed=0;outlineConnect=0;strokeWidth=2;html=1;align=center;fontSize=13;verticalLabelPosition=bottom;verticalAlign=top;shape=mxgraph.eip.transactional_client;" vertex="1" parent="1">
          <mxGeometry x="1120" y="500" width="130" height="90" as="geometry" />
        </mxCell>
        <mxCell id="gpd19oeyMjvA0ryeFxa_-24" value="" style="endArrow=none;dashed=1;html=1;rounded=0;fontSize=13;strokeWidth=2;" edge="1" parent="1">
          <mxGeometry width="50" height="50" relative="1" as="geometry">
            <mxPoint x="1630" y="930" as="sourcePoint" />
            <mxPoint x="1620" y="250" as="targetPoint" />
          </mxGeometry>
        </mxCell>
        <mxCell id="gpd19oeyMjvA0ryeFxa_-25" value="" style="endArrow=none;dashed=1;html=1;rounded=0;fontSize=13;strokeWidth=2;" edge="1" parent="1">
          <mxGeometry width="50" height="50" relative="1" as="geometry">
            <mxPoint x="1270" y="970" as="sourcePoint" />
            <mxPoint x="1270" y="230" as="targetPoint" />
          </mxGeometry>
        </mxCell>
        <mxCell id="gpd19oeyMjvA0ryeFxa_-26" value="" style="endArrow=none;dashed=1;html=1;rounded=0;fontSize=13;strokeWidth=2;" edge="1" parent="1">
          <mxGeometry width="50" height="50" relative="1" as="geometry">
            <mxPoint x="1090" y="950" as="sourcePoint" />
            <mxPoint x="1090" y="240" as="targetPoint" />
          </mxGeometry>
        </mxCell>
      </root>
    </mxGraphModel>
  </diagram>
</mxfile>
